<svg xmlns="http://www.w3.org/2000/svg" xmlns:xlink="http://www.w3.org/1999/xlink" width="476.7054138183594" height="371.1246871948242" viewBox="0 0 476.7054138183594 371.1246871948242" fill="none"><path d="M247.562 299.853C247.018 300.671 246.386 301.447 245.665 302.168L196.168 351.665C193.695 354.138 190.573 355.567 187.35 355.952C186.345 356.105 185.327 356.156 184.314 356.105C181.213 355.947 178.152 354.832 175.611 352.76C175.218 352.44 174.838 352.096 174.472 351.73L124.975 302.233C124.899 302.157 124.824 302.081 124.75 302.004C124.021 301.244 123.389 300.427 122.851 299.566C122.848 299.561 122.844 299.555 122.841 299.55L122.84 299.549L19.3933 196.103C13.5355 190.245 13.5355 180.747 19.3933 174.89L68.8903 125.393C74.7481 119.535 84.2454 119.535 90.1032 125.393L185.353 220.642L201.836 204.159L386.602 19.3937C390.263 15.7326 395.346 14.3596 400.073 15.2749C400.191 15.2978 400.309 15.3221 400.427 15.3478C403.134 15.9399 405.71 17.2885 407.815 19.3937L457.312 68.8907C463.17 74.7485 463.17 84.2458 457.312 90.1036L247.562 299.853Z" stroke="#855CD6" stroke-width="30"    fill-rule="evenodd"  fill="#855CD6" fill-opacity="0"></path></svg>